/* XPM */
static char *_c4bd9accee141ddfb87923bce2d8973DLcHLSB1d5CNypT9[] = {
/* columns rows colors chars-per-pixel */
"64 64 9 1 ",
"  c #393939",
". c #3B3B3A",
"X c #433A3A",
"o c #696E60",
"O c #707369",
"+ c #E95252",
"@ c #E29421",
"# c #8E8E8E",
"$ c #B2B7A8",
/* pixels */
"OOO$$$$$$$$$$$$$$$$$$$$$$$$$$$$OO$$$$$$$$$$$$$$$$$$$$$$$$$$$$OOO",
"OO$$$$$$$$$$$$$$$$$$$$$$$$$$$$$$$$$$$$$$$$$$$$$$$$$$$$$$$$$$$$OO",
"O$$$$$$$$$$$$$$$$$$$$$$$$$$$$$$##$$$$$$$$$$$$$$$$$$$$$$$$$$$$$$O",
"$$$$$$$o#               #o$$$$$##$$$$$o#               #o$$$$$$$",
"$$$$$$oo#               #oo$$$$##$$$$oo#               #oo$$$$$$",
"$$$$$oo##$             $##oo$$$##$$$oo##$             $##oo$$$$$",
"$$$#$###$$$           $$$###$#$##$#$###$$$           $$$###$#$$$",
"$$$#$  $$$$$$$$$$$$$$$$$$$  $#$##$#$  $$$$$$$$$$$$$$$$$$$  $#$$$",
"$$$#$   $$XXXXXXXXXXXXX$$   $#$##$#$   $$XXXXXXXXXXXXX$$   $#$$$",
"$$$#$   $XX+++++++++++XX$   $#$##$#$   $XX+++++++++++XX$   $#$$$",
"$$$#$   $X+++++++++++++X$   $#$##$#$   $X+++++++++++++X$   $#$$$",
"$$$#$   $X+++++++++++++X$   $#$##$#$   $X+++++++++++++X$   $#$$$",
"$$$#$   $X++ +++ +++ ++X$   $#$##$#$   $X++ +++ +++ ++X$   $#$$$",
"$$$#$   $X+++++++++++++X$   $#$##$#$   $X+++++++++++++X$   $#$$$",
"$$$#$   $X+++++++++++++X$   $#$##$#$   $X+++++++++++++X$   $#$$$",
"$$$#$   $X++ +++ +++ ++X$   $#$##$#$   $X++ +++ +++ ++X$   $#$$$",
"$$$#$   $X+++++++++++++X$   $#$##$#$   $X+++++++++++++X$   $#$$$",
"$$$#$   $X+++++++++++++X$   $#$##$#$   $X+++++++++++++X$   $#$$$",
"$$$#$   $X++ +++ +++ ++X$   $#$##$#$   $X++ +++ +++ ++X$   $#$$$",
"$$$#$   $X+++++++++++++X$   $#$##$#$   $X+++++++++++++X$   $#$$$",
"$$$#$   $X+++++++++++++X$   $#$##$#$   $X+++++++++++++X$   $#$$$",
"$$$#$   $X++ +++ +++ ++X$   $#$##$#$   $X++ +++ +++ ++X$   $#$$$",
"$$$#$   $X+++++++++++++X$   $#$##$#$   $X+++++++++++++X$   $#$$$",
"$$$#$   $X+++++++++++++X$   $#$##$#$   $X+++++++++++++X$   $#$$$",
"$$$#$   $X+++++++++++++X$   $#$##$#$   $X+++++++++++++X$   $#$$$",
"$$$#$   $X+++++++++++++X$   $#$##$#$   $X+++++++++++++X$   $#$$$",
"$$$#$   $X+++++++++++++X$   $#$##$#$   $X+++++++++++++X$   $#$$$",
"$$$#$   $X+++++++++++++X$   $#$##$#$   $X+++++++++++++X$   $#$$$",
"$$$#$   $X+++++++++++++X$   $#$##$#$   $X+++++++++++++X$   $#$$$",
"$$$#$   $X+++++++++++++X$   $#$##$#$   $X+++++++++++++X$   $#$$$",
"$$$#$  $$X+++++++++++++X$$$$$#$##$#$$$$$X+++++++++++++X$$  $#$$$",
"$$$$$$$$$X  ................$$$##$$$..................X$$$$$$$$$",
"$$$$.$$$$X.####.+++++++++++.@@@##@@@.+++++++++++.####.X$$$$.$$$$",
"$$$$.$$$$X.#..#.+++++++++++.@++##++@.+++++++++++.#..#.X$$$$.$$$$",
"$$$$.$$$$X.#..#.+++++++++++.@++##++@.+++++++++++.#..#.X$$$$.$$$$",
"$$$$.$$$$X.#..#.+++++++++++.@++##++@.+++++++++++.#..#.X$$$$.$$$$",
"$$$$$$$$$X..###.+++++++++++.@@@##@@@.+++++++++++.###..X$$$$$$$$$",
"$$$$$$$$$$X.................$$$##$$$.................X$$$$$$$$$$",
"$$$#$   $$$XXXXXXXXXXX$$$$$$$#$##$#$$$$$$$XXXXXXXXXXX$$$   $#$$$",
"$$$#$     $$$$$$$$$$$$$     $#$##$#$     $$$$$$$$$$$$$     $#$$$",
"$$$#$      $ooooooooo$      $#$##$#$      $ooooooooo$      $#$$$",
"$$$#$      $$ooooooo$$      $#$##$#$      $$ooooooo$$      $#$$$",
"$$$#$       $$$$$$$$$       $#$##$#$       $$$$$$$$$       $#$$$",
"$$$#$       $$$$$$$$$       $#$##$#$       $$$$$$$$$       $#$$$",
"$$$#$      $$+++++++$$      $#$##$#$      $$+++++++$$      $#$$$",
"$$$#$    $$+++++++++++$$    $#$##$#$    $$+++++++++++$$    $#$$$",
"$$$#$   $+++++++++++++++$   $#$##$#$   $+++++++++++++++$   $#$$$",
"$$$#$   $+ +++ +++ +++ +$   $#$##$#$   $+ +++ +++ +++ +$   $#$$$",
"$$$#$   $+++++++++++++++$   $#$##$#$   $+++++++++++++++$   $#$$$",
"$$$#$   $+++++++++++++++$   $#$##$#$   $+++++++++++++++$   $#$$$",
"$$$#$   $+ +++ +++ +++ +$   $#$##$#$   $+ +++ +++ +++ +$   $#$$$",
"$$$#$   $+++++++++++++++$   $#$##$#$   $+++++++++++++++$   $#$$$",
"$$$#$   $$+++++++++++++$$   $#$##$#$   $$+++++++++++++$$   $#$$$",
"$$$#$   $$$+++++++++++$$$   $#$##$#$   $$$+++++++++++$$$   $#$$$",
"$$$#$  $$$$$$$$$$$$$$$$$$$  $#$##$#$  $$$$$$$$$$$$$$$$$$$  $#$$$",
"$$$#$ $$$$$ ......... $$$$$ $#$##$#$ $$$$$ ......... $$$$$ $#$$$",
"$$$#$$$$$$             $$$$$$#$##$#$$$$$$             $$$$$$#$$$",
"$$$#$$$$$               $$$$$#$##$#$$$$$               $$$$$#$$$",
"$$$$$$$$                 $$$$$$##$$$$$$                 $$$$$$$$",
"$$$$$$$                   $$$$$##$$$$$                   $$$$$$$",
"$$$$$$$$$$$$$$$$$$$$$$$$$$$$$$$##$$$$$$$$$$$$$$$$$$$$$$$$$$$$$$$",
"O$$$$$$$$$$$$$$$$$$$$$$$$$$$$$$##$$$$$$$$$$$$$$$$$$$$$$$$$$$$$$O",
"OO$$$$$$$$$$$$$$$$$$$$$$$$$$$$$$$$$$$$$$$$$$$$$$$$$$$$$$$$$$$$OO",
"OOO$$$$$$$$$$$$$$$$$$$$$$$$$$$$OO$$$$$$$$$$$$$$$$$$$$$$$$$$$$OOO"
};
